<svg width="174" height="104" viewBox="0 0 174 104" fill="none" xmlns="http://www.w3.org/2000/svg">
<path fill-rule="evenodd" clip-rule="evenodd" d="M121.026 64.5189V65.785V76.0646V76.9071V78.5933V95.5146V101.208L118.971 104H124.716H133.519H141.162L139.475 101.208H139.423V79.0151L140.53 75.9583H136.577H137.841H139.37C139.739 71.478 143.534 67.8936 148.066 67.8936C152.705 67.8936 156.448 71.478 156.817 75.9583H158.346H159.664H155.658L156.765 79.0151V101.208H156.712L154.709 104H162.564H171.05H176.848L175.214 101.208V95.5146V78.5933V76.9071V76.0646V65.785V64.5189V60.8829V60.4076L180.01 56.6651H180.168V56.5065V56.2962H175.214V52.6589V51.659V50.8148V50.2355H121.026V50.8148V51.659V52.6589V56.2962H116.019V56.4025V56.6651H116.282L121.026 60.4076V60.8829V64.5189Z" fill="#FAA935"/>
<path fill-rule="evenodd" clip-rule="evenodd" d="M119.497 72.4268V78.2243V78.6996V79.1732H119.128V88.8717V89.5045V93.1429V93.7745V102.473V103.579V103.999H55.7169V103.579V102.473V93.7745V93.1429V89.5045V88.8717V79.1726H55.0307V78.6991V78.2238V72.4263V71.636H55.9267V66.2063V53.0273V52.1843V40.3771V39.5317V15.3388H54.6623V13.7566H57.1921V11.3848H58.0887V10.6481H58.3519L59.3536 8.85563L60.4076 6.95739L61.4093 8.85563L62.4116 10.6481H62.6754V11.3848H77.645V13.7566H80.2277V15.3388H78.8048V39.5317V40.3771V41.0099H85.0247L86.027 33.4704L86.2379 31.4682V20.715H84.5512V19.3961H86.2379V17.9725H87.6615V19.3961H89.3476V20.715H87.6615V31.2044L87.9775 33.4698L88.9786 41.0093H95.9894V40.3765V39.5311V15.3382H94.7239V13.756H97.2548V11.3842H111.909V10.6475H112.172L113.174 8.85503L114.175 6.95679L115.229 8.85503L116.178 10.6475H116.495V11.3842H117.708V13.756H120.29V15.3382H118.867V39.5311V40.3765V52.1837V53.0267V66.2057V71.6355H119.499V72.4268H119.497ZM95.9876 43.3823H88.924V47.8109L89.3458 48.4941L91.7705 52.2912H95.9876V52.1849V43.3823ZM85.0229 43.3823H78.803V52.1849V52.2912H82.1771L84.5494 48.4941L85.0229 47.8109V43.3823ZM94.8801 62.78C94.6698 58.9847 91.7176 55.9808 87.9752 55.7176C91.7176 55.9802 94.6698 59.0375 94.8801 62.78ZM59.7225 52.8182H75.0089V52.1855V41.2214H59.7225V52.1855V52.8182ZM65.204 43.0668C64.6776 43.0668 64.2029 43.3822 64.2029 43.75V51.605H66.2057V43.75C66.2051 43.3822 65.7838 43.0668 65.204 43.0668ZM69.1573 43.0668C68.6303 43.0668 68.1556 43.3822 68.1556 43.75V51.605H70.1584V43.75C70.1584 43.3822 69.7372 43.0668 69.1573 43.0668ZM62.9374 56.6658H60.8817V54.6101H62.9374V56.6658ZM73.7434 56.6658H71.6354V54.6101H73.7434V56.6658ZM105.265 43.0668C104.738 43.0668 104.264 43.3822 104.264 43.75V51.605H106.267V43.75C106.267 43.3822 105.844 43.0668 105.265 43.0668ZM109.219 43.0668C108.691 43.0668 108.269 43.3822 108.269 43.75V51.605H110.22V43.75C110.22 43.3822 109.799 43.0668 109.219 43.0668ZM102.999 56.6658H100.942V54.6101H102.999V56.6658ZM113.805 56.6658H111.749V54.6101H113.805V56.6658ZM59.5633 102.473H60.9863V88.5563C60.9863 84.2868 67.2591 80.8076 67.2591 80.8076C67.2591 80.8076 73.5325 84.2868 73.5325 88.5563V102.473H75.5882V93.7745V93.1429V89.5045V88.8717V79.1726H59.5633V88.8711V89.5039V93.1423V93.7739V102.473ZM79.4363 102.473H81.0696V88.5563C81.0696 84.2868 87.343 80.8076 87.343 80.8076C87.343 80.8076 93.6158 84.2868 93.6158 88.5563V102.473H95.4083V93.7745V93.1429V89.5045V88.8717V79.1726H79.4363V88.8711V89.5039V93.1423V93.7739V102.473ZM99.3082 102.473H101.101V88.5563C101.101 84.2868 107.373 80.8076 107.373 80.8076C107.373 80.8076 113.646 84.2868 113.646 88.5563V102.473H115.227V93.7745V93.1429V89.5045V88.8717V79.1726H99.3088V88.8711V89.5039V93.1423V93.7739L99.3082 102.473Z" fill="#FAA935"/>
<path fill-rule="evenodd" clip-rule="evenodd" d="M10.014 17.8174L10.8577 25.7234L38.8471 22.6667L38.0046 14.76L10.014 17.8174ZM32.3117 89.9797C17.7104 89.9797 5.11187 95.7778 -1.52588e-05 104H64.7297C59.5109 95.7778 46.9659 89.9797 32.3117 89.9797ZM44.751 68.6314L15.0219 71.9003L15.1794 73.6922L44.9625 70.4239L44.751 68.6314ZM33.2605 2.26665L11.8594 4.58613L11.7014 3.00574L33.1031 0.685669L33.2605 2.26665ZM38.5839 12.071L8.80141 15.2864L9.01233 17.1312L38.7419 13.8629L38.5839 12.071ZM39.7965 23.3511L10.0669 26.62L10.2249 28.4659L40.008 25.1971L39.7965 23.3511ZM41.0091 34.6847L11.2789 37.953L11.4898 39.7449L41.2195 36.5307L41.0091 34.6847ZM42.274 45.966L12.4921 49.2331L12.7553 51.0779L42.485 47.8108L42.274 45.966ZM43.4867 57.2978L13.757 60.5667L13.968 62.4115L43.697 59.1414L43.4867 57.2978ZM14.653 14.1267L13.6513 5.06142L31.6261 3.11031L32.6278 12.1755L14.653 14.1267ZM26.8819 7.59064L27.1992 10.8061L30.3089 10.4906L29.9916 7.27456C29.8859 6.3792 29.0962 5.69299 28.2532 5.79815C27.4095 5.90391 26.7762 6.69469 26.8819 7.59064ZM16.1817 8.80385L16.5506 12.0181L19.6603 11.6491L19.2919 8.43489C19.185 7.53776 18.3954 6.9056 17.5523 7.01076C16.7087 7.06364 16.0759 7.85324 16.1817 8.80385ZM21.5057 8.22279L21.874 11.4388L24.9837 11.0699L24.6153 7.85384C24.5625 6.95848 23.7723 6.27226 22.8757 6.43208C22.0321 6.48496 21.4528 7.27456 21.5057 8.22279ZM35.1059 16.6588L35.6846 21.8753L37.5299 21.665L36.9506 16.4467C36.8972 16.0249 36.4759 15.7088 35.9489 15.7605C35.4214 15.8134 35.053 16.1835 35.1059 16.6588ZM17.0247 64.8884L17.6575 70.1078L19.45 69.8964L18.8701 64.6781C18.8172 64.2557 18.396 63.9408 17.8684 63.9925C17.3943 64.0982 17.0247 64.4678 17.0247 64.8884ZM19.608 64.5718L20.1873 69.8446L22.0315 69.6325L21.4522 64.4149C21.3999 63.9925 20.9775 63.677 20.4511 63.7299C19.9247 63.7822 19.5551 64.2046 19.608 64.5718ZM22.1907 64.3614L22.7706 69.5286L24.563 69.3693L24.0355 64.0982C23.9826 63.6764 23.5091 63.412 22.9815 63.4655C22.5074 63.519 22.1384 63.8885 22.1907 64.3614ZM24.7205 64.0454L25.3016 69.2618L27.1457 69.0515L26.5659 63.835C26.513 63.4114 26.0911 63.1482 25.5648 63.1482C25.0372 63.2546 24.6688 63.6247 24.7205 64.0454ZM27.3044 63.7293L27.8836 68.9992L29.6761 68.7889L29.1497 63.5718C29.0969 63.1488 28.6221 62.8327 28.1474 62.8856C27.6204 62.9385 27.2515 63.3586 27.3044 63.7293ZM29.8342 63.519L30.414 68.6831L32.2594 68.5251L31.7318 63.254C31.6789 62.8321 31.2054 62.5695 30.6772 62.6218C30.1508 62.6747 29.7813 63.0431 29.8342 63.519ZM32.4174 63.2017L32.9961 68.4199L34.8415 68.2096L34.2622 63.0431C34.2099 62.5695 33.7352 62.3058 33.2611 62.3058C32.7329 62.4115 32.3646 62.7799 32.4174 63.2017ZM35.0001 62.9385L35.5271 68.1561L37.4248 67.9464L36.8443 62.7264C36.7914 62.3057 36.3173 61.9903 35.7903 62.0431C35.3162 62.0954 34.9466 62.5161 35.0001 62.9385ZM37.5299 62.6747L38.1098 67.8935L39.9552 67.6832L39.3753 62.4638C39.3224 62.0432 38.8477 61.7271 38.3736 61.7805C37.8983 61.8328 37.477 62.2006 37.5299 62.6747ZM40.1132 62.3592L40.6396 67.5768L42.5366 67.3654L41.9574 62.2006C41.9051 61.7265 41.4827 61.4633 40.9563 61.4633C40.4293 61.5696 40.0603 61.9368 40.1132 62.3592ZM15.8127 53.4503L16.3403 58.6685L18.2374 58.4582L17.6581 53.2382C17.6052 52.8181 17.1834 52.5543 16.6564 52.5543C16.1288 52.6595 15.7604 53.0278 15.8127 53.4503ZM18.3431 53.1871L18.9753 58.4047L20.7677 58.1944L20.1879 52.975C20.135 52.5543 19.7138 52.2388 19.1856 52.2917C18.7121 52.3428 18.3431 52.7646 18.3431 53.1871ZM20.9258 52.9221L21.5057 58.1421L23.351 57.9312L22.7706 52.6589C22.7183 52.2911 22.297 51.975 21.7695 52.0279C21.2425 52.0802 20.8729 52.4491 20.9258 52.9221ZM23.4562 52.6078L24.0877 57.8254L25.8802 57.6686L25.3538 52.4492C25.2487 51.975 24.8268 51.7118 24.2999 51.7118C23.8245 51.8164 23.4562 52.1854 23.4562 52.6078ZM26.0383 52.3428L26.6193 57.5622L28.4635 57.3495L27.883 52.1325C27.8302 51.7118 27.4089 51.3946 26.8813 51.4463C26.3549 51.4986 25.986 51.9222 26.0383 52.3428ZM28.6215 52.0802L29.2014 57.2978L30.9933 57.0863L30.4669 51.8164C30.414 51.4463 29.9387 51.1302 29.4652 51.1837C28.9376 51.2359 28.5687 51.6049 28.6215 52.0802ZM31.1519 51.7647L31.7318 56.9818L33.5772 56.8231L32.9961 51.6049C32.9961 51.1296 32.5232 50.8664 31.995 50.8664C31.468 50.9727 31.1003 51.3417 31.1519 51.7647ZM33.7352 51.4985L34.3151 56.718L36.1076 56.5071L35.58 51.2882C35.5277 50.8664 35.0536 50.5503 34.5789 50.6567C34.0513 50.6561 33.6817 51.0779 33.7352 51.4985ZM36.3173 51.2359L36.8443 56.4553L38.7419 56.2439L38.1627 50.9727C38.1098 50.6038 37.6351 50.2877 37.1087 50.3406C36.6334 50.3935 36.2127 50.7624 36.3173 51.2359ZM38.8477 50.9193L39.4276 56.1399L41.2729 55.9801L40.6931 50.7624C40.6402 50.2871 40.1655 50.0245 39.6908 50.0245C39.2172 50.1297 38.7942 50.4986 38.8477 50.9193ZM14.5478 42.0121L15.1271 47.2303L16.9719 47.0717L16.3926 41.8018C16.3403 41.3782 15.9185 41.1149 15.3915 41.1678C14.9162 41.2213 14.4949 41.5903 14.5478 42.0121ZM17.1299 41.7471L17.6581 46.9665L19.5551 46.7556L18.9753 41.5368C18.9224 41.115 18.4489 40.7989 17.9736 40.8523C17.4472 40.9046 17.0782 41.3253 17.1299 41.7471ZM19.6603 41.4845L20.2396 46.7027L22.0849 46.4924L21.5057 41.2742C21.4528 40.8524 21.031 40.5363 20.5046 40.5891C20.0293 40.642 19.6603 41.011 19.6603 41.4845ZM22.2436 41.1678L22.8229 46.3873L24.6682 46.2286L24.0872 41.011C24.0349 40.5357 23.6136 40.2731 23.086 40.3254C22.5602 40.3782 22.1907 40.746 22.2436 41.1678ZM24.774 40.9046L25.4073 46.1229L27.1998 45.9126L26.6716 40.6937C26.5665 40.2725 26.1446 39.9558 25.6176 40.0087C25.1435 40.0622 24.774 40.4828 24.774 40.9046ZM27.3572 40.642L27.9365 45.8597L29.7813 45.6482L29.202 40.4317C29.1497 40.0093 28.7273 39.692 28.2009 39.7455C27.6727 39.7978 27.3044 40.2196 27.3572 40.642ZM29.9393 40.3782L30.5198 45.5424L32.3123 45.385L31.7853 40.1679C31.7324 39.6914 31.2583 39.4288 30.7307 39.4817C30.256 39.5328 29.8864 39.9035 29.9393 40.3782ZM32.4697 40.0622L33.0496 45.2786L34.8944 45.0683L34.3151 39.8518C34.3151 39.4282 33.8404 39.1116 33.3134 39.2179C32.7858 39.2696 32.4174 39.6385 32.4697 40.0622ZM35.053 39.7978L35.6323 45.016L37.4248 44.8057L36.8966 39.5863C36.8443 39.1656 36.3702 38.8495 35.8955 38.9024C35.3691 38.9535 35.0001 39.3759 35.053 39.7978ZM37.5828 39.5328L38.1627 44.6999L40.0603 44.5425L39.4804 39.3225C39.4276 38.8489 38.954 38.5863 38.4265 38.6392C37.8983 38.6903 37.5299 39.0599 37.5828 39.5328ZM13.3358 30.6262L13.8622 35.7904L15.7076 35.6329L15.1277 30.363C15.1277 29.9394 14.6536 29.6768 14.1789 29.7279C13.6519 29.7813 13.2301 30.1521 13.3358 30.6262ZM15.8656 30.3107L16.4455 35.5272L18.2908 35.3174L17.7098 30.1521C17.6575 29.6774 17.2357 29.4142 16.7081 29.4142C16.234 29.5182 15.8127 29.8871 15.8656 30.3107ZM18.4489 29.9946L18.9753 35.2646L20.8729 35.0537L20.2402 29.8342C20.2402 29.4136 19.7667 29.0975 19.2925 29.2021C18.7644 29.2021 18.396 29.6245 18.4489 29.9946ZM20.9781 29.7814L21.5591 35.0014L23.4033 34.791L22.8234 29.5181C22.7706 29.1492 22.3493 28.8349 21.8223 28.8866C21.3476 28.9389 20.9781 29.3084 20.9781 29.7814ZM23.5614 29.4653L24.1406 34.6847L25.986 34.475L25.4067 29.3084C25.3538 28.8349 24.932 28.5711 24.405 28.5711C23.8774 28.6757 23.5091 29.0446 23.5614 29.4653ZM26.0912 29.2021L26.7239 34.4221L28.5164 34.2112L27.9888 28.9912C27.8836 28.5705 27.4624 28.255 26.9342 28.3596C26.4607 28.3596 26.0912 28.7814 26.0912 29.2021ZM28.675 28.9389L29.2549 34.1589L31.1003 33.9468L30.5192 28.7286C30.4669 28.3067 30.0445 27.9918 29.5175 28.0435C28.9899 28.0964 28.6216 28.466 28.675 28.9389ZM31.2571 28.6222L31.8364 33.8404L33.6289 33.6295L33.1025 28.4659C32.9955 27.9918 32.5743 27.7257 32.0473 27.7257C31.5732 27.8314 31.2048 28.2016 31.2571 28.6222ZM33.7869 28.3596L34.3674 33.5761L36.2127 33.3663L35.6323 28.1487C35.5794 27.7251 35.1582 27.4096 34.6306 27.5153C34.1042 27.5153 33.7352 27.936 33.7869 28.3596ZM36.3708 28.0964L36.9506 33.3134L38.7425 33.1031L38.2161 27.8849C38.1633 27.4631 37.688 27.147 37.2138 27.2004C36.6868 27.2527 36.3173 27.6217 36.3708 28.0964ZM12.0697 19.1874L12.6508 24.4075L14.4949 24.196L13.9151 18.9248C13.8622 18.5559 13.3887 18.2398 12.8611 18.2921C12.387 18.345 12.0174 18.7145 12.0697 19.1874ZM14.653 18.8708L15.1794 24.0908L17.0247 23.9304L16.4455 18.7139C16.4455 18.2386 15.9708 17.9736 15.4961 17.9736C14.9691 18.08 14.5478 18.4501 14.653 18.8708ZM17.1828 18.6082L17.7627 23.8252L19.608 23.6149L19.0282 18.3972C18.9753 17.9736 18.554 17.6581 18.0259 17.7639C17.4995 17.7639 17.1299 18.1875 17.1828 18.6082ZM19.7661 18.345L20.2931 23.562L22.1901 23.3517L21.5586 18.1323C21.5586 17.7116 21.0832 17.3955 20.6091 17.449C20.0815 17.5013 19.6603 17.8691 19.7661 18.345ZM22.297 18.0271L22.8763 23.2453L24.7205 23.0879L24.1406 17.8685C24.0877 17.3944 23.6665 17.1312 23.1389 17.1312C22.6648 17.2375 22.297 17.6053 22.297 18.0271ZM24.8791 17.7639L25.459 22.9821L27.3044 22.7724L26.7245 17.5524C26.6716 17.1318 26.2504 16.8157 25.7228 16.9214C25.1958 16.9214 24.8268 17.3421 24.8791 17.7639ZM27.4095 17.5013L27.9888 22.7195L29.8342 22.5092L29.2549 17.2898C29.202 16.8691 28.7802 16.5531 28.2532 16.6059C27.7785 16.6588 27.4095 17.026 27.4095 17.5013ZM29.9916 17.184L30.5721 22.4023L32.4174 22.2454L31.8364 17.0254C31.7841 16.5519 31.3629 16.2893 30.8347 16.3416C30.3089 16.395 29.9393 16.7628 29.9916 17.184ZM32.5226 16.9214L33.1554 22.1397L34.9461 21.9288L34.4197 16.7099C34.3145 16.2899 33.8921 15.972 33.3657 16.0766C32.891 16.076 32.5226 16.4996 32.5226 16.9214ZM11.2266 29.1492L12.0697 37.0042L40.0603 33.9468L39.2172 26.093L11.2266 29.1492ZM12.4393 40.4828L13.3358 48.3378L41.3258 45.2792L40.4299 37.426L12.4393 40.4828ZM13.7042 51.8164L14.5478 59.6714L42.5366 56.6134L41.6936 48.759L13.7042 51.8164ZM14.9162 63.0953L15.8121 71.0038L43.7493 67.9464L42.9068 60.0397L14.9162 63.0953ZM16.1817 74.4295L17.9742 91.0872C18.396 90.9796 18.8172 90.8756 19.2925 90.717L17.9213 78.5403C17.8161 77.3301 18.8707 76.2749 20.3471 76.0646C21.8223 75.9053 23.0872 76.7478 23.1936 78.0139L24.4579 89.7165C24.932 89.663 25.3538 89.6101 25.8285 89.5573L24.5636 77.8559C24.4585 76.6433 25.5125 75.5376 26.9354 75.3784C28.3589 75.2186 29.6767 76.064 29.7819 77.2766L31.1008 89.1895C31.5221 89.1366 31.9433 89.1366 32.3123 89.1366H32.4703L31.1525 77.1168C31.0474 75.9053 32.102 74.7985 33.5243 74.6393C35.0007 74.4812 36.2656 75.3255 36.4236 76.5369L37.7937 89.3998C38.2684 89.4527 38.7425 89.5038 39.2172 89.5573L37.7937 76.3795C37.6357 75.2186 38.7425 74.06 40.1661 73.9019C41.589 73.7445 42.908 74.587 43.0131 75.8513L44.6464 90.5584C45.174 90.6629 45.7539 90.821 46.2808 90.979L44.1723 71.3728L16.1817 74.4295Z" fill="#FAA935"/>
</svg>
